<svg xmlns="http://www.w3.org/2000/svg" style="display: none;">
    <symbol id="user-icon" viewBox="0 0 27 28" >
        <path fill-rule="evenodd" clip-rule="evenodd" d="M8.71875 8.9375C8.71875 8.30962 8.84242 7.68788 9.0827 7.1078C9.32298 6.52771 9.67517 6.00063 10.1191 5.55665C10.5631 5.11267 11.0902 4.76048 11.6703 4.5202C12.2504 4.27992 12.8721 4.15625 13.5 4.15625C14.1279 4.15625 14.7496 4.27992 15.3297 4.5202C15.9098 4.76048 16.4369 5.11267 16.8809 5.55665C17.3248 6.00063 17.677 6.52771 17.9173 7.1078C18.1576 7.68788 18.2813 8.30962 18.2813 8.9375C18.2813 10.2056 17.7775 11.4217 16.8809 12.3184C15.9842 13.215 14.7681 13.7188 13.5 13.7188C12.2319 13.7188 11.0158 13.215 10.1191 12.3184C9.22249 11.4217 8.71875 10.2056 8.71875 8.9375ZM13.5 5.84375C12.6795 5.84375 11.8926 6.1697 11.3124 6.74989C10.7322 7.33008 10.4063 8.11699 10.4063 8.9375C10.4063 9.75801 10.7322 10.5449 11.3124 11.1251C11.8926 11.7053 12.6795 12.0313 13.5 12.0313C14.3205 12.0313 15.1074 11.7053 15.6876 11.1251C16.2678 10.5449 16.5938 9.75801 16.5938 8.9375C16.5938 8.11699 16.2678 7.33008 15.6876 6.74989C15.1074 6.1697 14.3205 5.84375 13.5 5.84375ZM9 17.0938C8.32867 17.0938 7.68484 17.3604 7.21014 17.8351C6.73543 18.3098 6.46875 18.9537 6.46875 19.625V20.9615C6.46875 20.9818 6.48338 20.9998 6.50363 21.0031C11.1375 21.7591 15.8636 21.7591 20.4964 21.0031C20.5059 21.0009 20.5145 20.9957 20.5208 20.9882C20.5271 20.9807 20.5308 20.9713 20.5313 20.9615V19.625C20.5313 18.9537 20.2646 18.3098 19.7899 17.8351C19.3152 17.3604 18.6713 17.0938 18 17.0938H17.6175C17.5874 17.0943 17.5575 17.0988 17.5286 17.1073L16.5555 17.4256C14.5701 18.0739 12.4299 18.0739 10.4445 17.4256L9.47025 17.1073C9.44209 17.099 9.41296 17.0945 9.38363 17.0938H9ZM4.78125 19.625C4.78125 18.5061 5.22572 17.4331 6.01689 16.6419C6.80806 15.8507 7.88112 15.4063 9 15.4063H9.3825C9.5925 15.407 9.7965 15.4393 9.9945 15.503L10.9688 15.8214C12.6135 16.3583 14.3865 16.3583 16.0313 15.8214L17.0055 15.503C17.2024 15.4389 17.4094 15.4063 17.6164 15.4063H18C19.1189 15.4063 20.1919 15.8507 20.9831 16.6419C21.7743 17.4331 22.2188 18.5061 22.2188 19.625V20.9615C22.2188 21.8098 21.6045 22.532 20.7675 22.6681C15.9543 23.4538 11.0457 23.4538 6.2325 22.6681C5.82771 22.6015 5.45968 22.3935 5.19392 22.0809C4.92817 21.7684 4.78194 21.3717 4.78125 20.9615V19.625Z" fill="#00A4FF"/>
    </symbol>
    <symbol id="email-icon" viewBox="0 0 28 29">
        <path d="M25.6667 7.49984C25.6667 6.2165 24.6167 5.1665 23.3334 5.1665H4.66671C3.38337 5.1665 2.33337 6.2165 2.33337 7.49984V21.4998C2.33337 22.7832 3.38337 23.8332 4.66671 23.8332H23.3334C24.6167 23.8332 25.6667 22.7832 25.6667 21.4998V7.49984ZM23.3334 7.49984L14 13.3332L4.66671 7.49984H23.3334ZM23.3334 21.4998H4.66671V9.83317L14 15.6665L23.3334 9.83317V21.4998Z" fill="#00A4FF"/>
    </symbol>
    <symbol id="phone-icon" viewBox="0 0 28 29">
        <path fill-rule="evenodd" clip-rule="evenodd" d="M6.68849 2.88352C8.10832 1.47185 10.4463 1.72269 11.6352 3.31169L13.1075 5.27635C14.0758 6.56902 13.9895 8.37502 12.8403 9.51719L12.5627 9.79485C12.5312 9.91141 12.528 10.0338 12.5533 10.1519C12.6268 10.6279 13.0247 11.6359 14.6907 13.2925C16.3567 14.9492 17.3717 15.3459 17.8547 15.4205C17.9764 15.445 18.102 15.4414 18.2222 15.41L18.6982 14.9364C19.7202 13.9214 21.2882 13.7312 22.5528 14.4184L24.7812 15.6317C26.691 16.6677 27.1728 19.2624 25.6095 20.8175L23.9517 22.4649C23.429 22.984 22.7267 23.4169 21.8703 23.4974C19.7587 23.6945 14.8388 23.4425 9.66699 18.301C4.84049 13.5014 3.91416 9.31535 3.79632 7.25269C3.73799 6.20969 4.23032 5.32769 4.85799 4.70469L6.68849 2.88352ZM10.2352 4.36052C9.64366 3.57069 8.54232 3.50769 7.92166 4.12485L6.08999 5.94485C5.70499 6.32752 5.52066 6.74985 5.54399 7.15352C5.63732 8.79269 6.38399 12.5692 10.9013 17.0609C15.6403 21.7719 20.0165 21.913 21.7082 21.7544C22.0535 21.7229 22.3965 21.5432 22.7173 21.2247L24.374 19.5762C25.0483 18.9065 24.9002 17.6862 23.9458 17.1682L21.7175 15.956C21.1015 15.6224 20.3805 15.732 19.9325 16.1777L19.4017 16.7062L18.7833 16.0855C19.4017 16.7062 19.4005 16.7074 19.3993 16.7074L19.3982 16.7097L19.3947 16.7132L19.3865 16.7202L19.369 16.7365C19.3198 16.7822 19.2667 16.8236 19.2103 16.8602C19.117 16.922 18.9933 16.9909 18.8382 17.048C18.5232 17.1659 18.1055 17.2289 17.5898 17.1495C16.5783 16.9944 15.2378 16.3049 13.4563 14.5339C11.676 12.7629 10.9807 11.4305 10.8243 10.4202C10.7438 9.90452 10.808 9.48685 10.927 9.17185C10.9925 8.9946 11.0863 8.82912 11.2047 8.68185L11.242 8.64102L11.2583 8.62352L11.2653 8.61652L11.2688 8.61302L11.2712 8.61069L11.6072 8.27702C12.1065 7.77885 12.1765 6.95402 11.7063 6.32519L10.2352 4.36052Z" fill="#00A4FF"/>
    </symbol>
    <symbol id="pane-icon" viewBox="0 0 22 23">
        <path d="M1.20093 21.3996H5.44343L20.9999 5.84309L16.7569 1.60059L1.20093 17.1571V21.3996Z" stroke="#00A4FF" stroke-width="2" stroke-linejoin="round"/>
        <path d="M12.5144 5.84326L16.7569 10.0858" stroke="#00A4FF" stroke-width="2" stroke-linecap="round" stroke-linejoin="round"/>
    </symbol>
    <symbol id="linkedin-icon" viewBox="0 0 36 35">
        <path d="M32.3264 0.820439H3.88892C3.24369 0.813872 2.62221 1.06354 2.16084 1.51465C1.69948 1.96576 1.43591 2.58148 1.42798 3.22669V31.779C1.43735 32.4233 1.70154 33.0376 2.16275 33.4875C2.62396 33.9375 3.24462 34.1864 3.88892 34.1798H32.3264C32.9717 34.1849 33.5927 33.9344 34.0539 33.483C34.515 33.0316 34.7787 32.4161 34.7874 31.7708V3.21849C34.7758 2.57517 34.5109 1.96239 34.0501 1.51335C33.5892 1.0643 32.9698 0.815292 32.3264 0.820439Z" fill="#808080"/>
        <path d="M6.36629 13.3247H11.3182V29.2579H6.36629V13.3247ZM8.84363 5.39502C9.41159 5.39502 9.9668 5.56348 10.439 5.87908C10.9112 6.19468 11.2792 6.64324 11.4964 7.16803C11.7137 7.69281 11.7704 8.27023 11.6594 8.82724C11.5484 9.38425 11.2746 9.89583 10.8728 10.2972C10.471 10.6987 9.95919 10.9719 9.40207 11.0824C8.84496 11.1928 8.26759 11.1356 7.74301 10.9179C7.21844 10.7001 6.77022 10.3317 6.45507 9.85922C6.13992 9.38671 5.97199 8.83134 5.97254 8.26338C5.97326 7.50239 6.27607 6.77282 6.81443 6.23498C7.35278 5.69713 8.08264 5.39502 8.84363 5.39502ZM14.4245 13.3247H19.1714V15.5122H19.237C19.8987 14.2599 21.512 12.9392 23.921 12.9392C28.9358 12.9282 29.8655 16.2286 29.8655 20.5079V29.2579H24.9136V21.506C24.9136 19.6603 24.8807 17.2841 22.3405 17.2841C19.8003 17.2841 19.3682 19.2966 19.3682 21.3856V29.2579H14.4245V13.3247Z" fill="white"/>
    </symbol>
    <symbol id="facebook-icon" viewBox="0 0 36 35">
        <g clip-path="url(#clip0_62_71)">
        <path d="M35.6986 17.5846C35.6986 8.5989 28.5453 1.30615 19.7314 1.30615C10.9176 1.30615 3.76428 8.5989 3.76428 17.5846C3.76428 25.4634 9.25698 32.0236 16.538 33.5375V22.4681H13.3446V17.5846H16.538V13.515C16.538 10.3733 19.0448 7.81754 22.1265 7.81754H26.1183V12.7011H22.9248C22.0467 12.7011 21.3281 13.4336 21.3281 14.3289V17.5846H26.1183V22.4681H21.3281V33.7817C29.3915 32.9678 35.6986 26.0331 35.6986 17.5846Z" fill="#808080"/>
        </g>
        <defs>
        <clipPath id="clip0_62_71">
        <rect width="35" height="35" fill="white" transform="translate(0.607666)"/>
        </clipPath>
        </defs>
    </symbol>
    <symbol id="github-icon" viewBox="0 0 36 35">
        <g clip-path="url(#clip0_62_69)">
        <path d="M17.7461 -0.1875C15.4005 -0.1875 13.0778 0.278799 10.9107 1.18477C8.74368 2.09075 6.77464 3.41865 5.11605 5.09267C1.76636 8.47351 -0.115479 13.0589 -0.115479 17.8401C-0.115479 25.8084 5.01078 32.5687 12.1018 34.9664C12.9949 35.1106 13.2807 34.5518 13.2807 34.065V31.0183C8.33303 32.1 7.2792 28.6026 7.2792 28.6026C6.45757 26.5114 5.29657 25.9526 5.29657 25.9526C3.67117 24.8349 5.4216 24.8709 5.4216 24.8709C7.20775 24.9971 8.15442 26.7278 8.15442 26.7278C9.70837 29.468 12.334 28.6567 13.3521 28.2241C13.5129 27.0523 13.9773 26.259 14.4774 25.8084C10.5121 25.3577 6.3504 23.8073 6.3504 16.9388C6.3504 14.9377 7.02914 13.3332 8.19014 12.0533C8.01152 11.6026 7.38637 9.7277 8.36875 7.29397C8.36875 7.29397 9.86912 6.80722 13.2807 9.13279C14.6917 8.73618 16.2278 8.53788 17.7461 8.53788C19.2643 8.53788 20.8004 8.73618 22.2114 9.13279C25.623 6.80722 27.1234 7.29397 27.1234 7.29397C28.1058 9.7277 27.4806 11.6026 27.302 12.0533C28.463 13.3332 29.1417 14.9377 29.1417 16.9388C29.1417 23.8253 24.9621 25.3396 20.979 25.7903C21.622 26.3492 22.2114 27.4489 22.2114 29.1254V34.065C22.2114 34.5518 22.4972 35.1286 23.4082 34.9664C30.4992 32.5507 35.6076 25.8084 35.6076 17.8401C35.6076 15.4727 35.1456 13.1285 34.248 10.9413C33.3503 8.75405 32.0347 6.76669 30.3761 5.09267C28.7175 3.41865 26.7484 2.09075 24.5814 1.18477C22.4143 0.278799 20.0917 -0.1875 17.7461 -0.1875Z" fill="#808080"/>
        </g>
        <defs>
        <clipPath id="clip0_62_69">
        <rect width="35" height="35" fill="white" transform="translate(0.607666)"/>
        </clipPath>
        </defs>
    </symbol>
    <symbol id="color-linkedin-icon" viewBox="0 0 25 25">
        <path d="M21.863 1.44076H2.2617C1.81696 1.43623 1.38858 1.60832 1.07058 1.91926C0.752567 2.23021 0.570898 2.6546 0.56543 3.09933V22.7798C0.571886 23.2239 0.753991 23.6473 1.07189 23.9574C1.38979 24.2676 1.8176 24.4391 2.2617 24.4346H21.863C22.3078 24.4381 22.7358 24.2654 23.0537 23.9543C23.3715 23.6432 23.5533 23.2189 23.5593 22.7741V3.09368C23.5513 2.65025 23.3687 2.22788 23.0511 1.91836C22.7334 1.60885 22.3065 1.43721 21.863 1.44076Z" fill="#0076B2"/>
        <path d="M3.96928 10.0597H7.38254V21.0421H3.96928V10.0597ZM5.67685 4.59393C6.06834 4.59393 6.45103 4.71005 6.77651 4.92758C7.10199 5.14512 7.35564 5.4543 7.50537 5.81602C7.6551 6.17774 7.69418 6.57575 7.61767 6.95968C7.54115 7.34362 7.35249 7.69624 7.07553 7.97292C6.79858 8.24961 6.44579 8.43795 6.06178 8.51409C5.67777 8.59024 5.2798 8.55078 4.91823 8.40071C4.55665 8.25063 4.2477 7.99669 4.03048 7.671C3.81325 7.34531 3.6975 6.96251 3.69788 6.57103C3.69838 6.04649 3.9071 5.54362 4.27817 5.1729C4.64925 4.80217 5.15232 4.59393 5.67685 4.59393ZM9.52361 10.0597H12.7955V11.5675H12.8408C13.2969 10.7043 14.4089 9.79393 16.0693 9.79393C19.5259 9.78639 20.1667 12.0613 20.1667 15.0109V21.0421H16.7535V15.6988C16.7535 14.4266 16.7309 12.7888 14.9799 12.7888C13.229 12.7888 12.9312 14.176 12.9312 15.6159V21.0421H9.52361V10.0597Z" fill="white"/>
    </symbol>
    <symbol id="color-facebook-icon" viewBox="0 0 25 25">
        <path d="M22.677 12.0623C22.677 6.51365 18.1737 2.01038 12.625 2.01038C7.07633 2.01038 2.57306 6.51365 2.57306 12.0623C2.57306 16.9275 6.03093 20.9784 10.6146 21.9132V15.0779H8.60423V12.0623H10.6146V9.54934C10.6146 7.60931 12.1928 6.03116 14.1328 6.03116H16.6458V9.04674H14.6354C14.0825 9.04674 13.6302 9.49908 13.6302 10.0519V12.0623H16.6458V15.0779H13.6302V22.064C18.7064 21.5614 22.677 17.2793 22.677 12.0623Z" fill="#00A4FF"/>
    </symbol>
    <symbol id="color-github-icon" viewBox="0 0 25 25">
        <path d="M12.1876 2.88571C10.8676 2.88571 9.56047 3.14571 8.34092 3.65087C7.12136 4.15603 6.01324 4.89645 5.07983 5.82986C3.19472 7.71496 2.13568 10.2717 2.13568 12.9377C2.13568 17.3806 5.02059 21.1501 9.01121 22.487C9.51381 22.5674 9.67464 22.2558 9.67464 21.9844V20.2856C6.89025 20.8888 6.29719 18.9387 6.29719 18.9387C5.8348 17.7726 5.18142 17.461 5.18142 17.461C4.26669 16.8378 5.25179 16.8579 5.25179 16.8579C6.25698 16.9283 6.78973 17.8933 6.78973 17.8933C7.66425 19.4212 9.14189 18.9688 9.71485 18.7276C9.80532 18.0742 10.0667 17.6319 10.3481 17.3806C8.11659 17.1293 5.77449 16.2649 5.77449 12.4351C5.77449 11.3193 6.15646 10.4247 6.80984 9.71098C6.70932 9.45969 6.3575 8.41428 6.91036 7.05727C6.91036 7.05727 7.75472 6.78587 9.67464 8.08257C10.4687 7.86143 11.3332 7.75085 12.1876 7.75085C13.042 7.75085 13.9065 7.86143 14.7006 8.08257C16.6205 6.78587 17.4649 7.05727 17.4649 7.05727C18.0178 8.41428 17.6659 9.45969 17.5654 9.71098C18.2188 10.4247 18.6008 11.3193 18.6008 12.4351C18.6008 16.2749 16.2486 17.1193 14.007 17.3706C14.3689 17.6822 14.7006 18.2953 14.7006 19.2302V21.9844C14.7006 22.2558 14.8614 22.5775 15.3741 22.487C19.3647 21.14 22.2396 17.3806 22.2396 12.9377C22.2396 11.6176 21.9796 10.3105 21.4744 9.09095C20.9693 7.87139 20.2288 6.76327 19.2954 5.82986C18.362 4.89645 17.2539 4.15603 16.0343 3.65087C14.8148 3.14571 13.5077 2.88571 12.1876 2.88571Z" fill="#00A4FF"/>
    </symbol>
    <symbol id="location-icon" viewBox="0 0 16 16">
        <path d="M8 14.5C10.5 11 12.5 8 12.5 6C12.5 4.80653 12.0259 3.66193 11.182 2.81802C10.3381 1.97411 9.19347 1.5 8 1.5C6.80653 1.5 5.66193 1.97411 4.81802 2.81802C3.97411 3.66193 3.5 4.80653 3.5 6C3.5 8 5.5 11 8 14.5Z" stroke="#00A4FF"/>
        <path d="M10 6C10 6.53043 9.78929 7.03914 9.41421 7.41421C9.03914 7.78929 8.53043 8 8 8C7.46957 8 6.96086 7.78929 6.58579 7.41421C6.21071 7.03914 6 6.53043 6 6C6 5.46957 6.21071 4.96086 6.58579 4.58579C6.96086 4.21071 7.46957 4 8 4C8.53043 4 9.03914 4.21071 9.41421 4.58579C9.78929 4.96086 10 5.46957 10 6Z" stroke="#00A4FF"/>
    </symbol>
    <symbol id="right-arrow-icon" viewBox="0 0 24 24">
        <path d="M10 17L15 12L10 7" stroke="#00A4FF" stroke-width="1.5" stroke-linecap="round" stroke-linejoin="round"/>
    </symbol>
    <symbol id="instagram-icon" viewBox="0 0 24 24">
        <path d="M2.5 12C2.5 7.522 2.5 5.282 3.891 3.891C5.282 2.5 7.521 2.5 12 2.5C16.478 2.5 18.718 2.5 20.109 3.891C21.5 5.282 21.5 7.521 21.5 12C21.5 16.478 21.5 18.718 20.109 20.109C18.718 21.5 16.479 21.5 12 21.5C7.522 21.5 5.282 21.5 3.891 20.109C2.5 18.718 2.5 16.479 2.5 12Z" stroke="#00A4FF" stroke-width="1.5" stroke-linecap="round" stroke-linejoin="round"/>
        <path d="M17.508 6.5H17.498M16.5 12C16.5 13.1935 16.0259 14.3381 15.182 15.182C14.3381 16.0259 13.1935 16.5 12 16.5C10.8065 16.5 9.66193 16.0259 8.81802 15.182C7.97411 14.3381 7.5 13.1935 7.5 12C7.5 10.8065 7.97411 9.66193 8.81802 8.81802C9.66193 7.97411 10.8065 7.5 12 7.5C13.1935 7.5 14.3381 7.97411 15.182 8.81802C16.0259 9.66193 16.5 10.8065 16.5 12Z" stroke="#00A4FF" stroke-width="1.5" stroke-linecap="round" stroke-linejoin="round"/>
    </symbol>
</svg>